<svg xmlns="http://www.w3.org/2000/svg" xmlns:xlink="http://www.w3.org/1999/xlink" xml:space="preserve" fill-rule="evenodd" clip-rule="evenodd" viewBox="0 0 183 183">
<defs>
<linearGradient id="id0" gradientUnits="userSpaceOnUse" x1="3.61417" y1="2.64173" x2="179.713" y2="180.685">
<stop offset="0" stop-opacity="1" stop-color="#FF6041"></stop>
<stop offset="1" stop-opacity="1" stop-color="#E63A7A"></stop>
</linearGradient>
</defs>
<g id="Layer_x0020_1">
<metadata id="CorelCorpID_0Corel-Layer"></metadata>
<g id="_2604025742800">
<g>
</g>
<path fill="url(#id0)" d="M92 66c-15,0 -26,11 -26,26 0,14 11,26 26,26 14,0 26,-12 26,-26 0,-15 -12,-26 -26,-26zm0 41c-9,0 -16,-7 -16,-15 0,-9 7,-16 16,-16 8,0 15,7 15,16 0,8 -7,15 -15,15zm88 -5c0,-4 0,-7 0,-10 0,-4 0,-7 0,-10l-27 -9c-2,-4 -3,-8 -5,-12l13 -24c-4,-6 -9,-10 -14,-15l-25 14c-4,-2 -8,-4 -12,-5l-8 -27c-4,-1 -7,-1 -10,-1 -4,0 -7,0 -10,1l-9 27c-4,1 -8,3 -12,5l-24 -14c-6,5 -10,9 -15,15l14 24c-2,4 -4,8 -5,12l-27 9c-1,3 -1,6 -1,10 0,3 0,6 1,10l27 8c1,4 3,8 5,12l-14 25c5,5 9,10 15,14l24 -13c4,2 8,3 12,5l9 27c3,0 6,0 10,0 3,0 6,0 10,0l8 -27c4,-2 8,-3 12,-5l25 13c5,-4 10,-9 14,-14l-13 -25c2,-4 3,-8 5,-12l27 -8zm-36 0l-1 5c-1,3 -3,7 -4,10l-3 5 3 5 9 18c-1,1 -2,2 -3,3l-23 -12 -5 3c-3,1 -7,3 -10,4l-5 1 -2 6 -6 20c-1,0 -2,0 -2,0 -1,0 -2,0 -3,0l-6 -20 -1 -6 -6 -1c-3,-1 -6,-3 -10,-4l-5 -3 -23 12c-1,-1 -2,-2 -3,-3l12 -23 -2 -5c-2,-3 -3,-7 -4,-10l-2 -5 -25 -8c0,-1 0,-2 0,-2 0,-1 0,-2 0,-3l25 -7 2 -6c1,-3 2,-6 4,-10l2 -5 -12 -23c1,-1 2,-2 3,-3l23 12 5 -2c4,-2 7,-3 10,-4l6 -2 1 -5 6 -20c1,0 2,0 3,0 0,0 1,0 2,0l6 20 2 5 5 2c3,1 7,2 10,4l5 2 23 -12c1,1 2,2 3,3l-10 19 -2 4 3 5c1,4 3,7 4,10l1 6 6 1 20 6c0,1 0,2 0,3 0,0 0,1 0,2l-26 8 0 0z"></path>
</g>
</g>
</svg>