<svg xmlns="http://www.w3.org/2000/svg" xmlns:xlink="http://www.w3.org/1999/xlink" xml:space="preserve" fill-rule="evenodd" clip-rule="evenodd" viewBox="0 0 183 183">
<defs>
<linearGradient id="id0" gradientUnits="userSpaceOnUse" x1="10.622" y1="17.5472" x2="172.713" y2="165.78">
<stop offset="0" stop-opacity="1" stop-color="#FF6041"></stop>
<stop offset="1" stop-opacity="1" stop-color="#E63A7A"></stop>
</linearGradient>
</defs>
<g id="Layer_x0020_1">
<metadata id="CorelCorpID_0Corel-Layer"></metadata>
<g id="_2604025708656">
<g>
</g>
<path fill="url(#id0)" d="M175 22l-14 -14c-6,-6 -17,-6 -22,0l-79 78 -18 55 55 -18 78 -79c3,-3 5,-7 5,-11 0,-4 -2,-8 -5,-11l0 0zm-113 93l6 -20 20 20 -20 7 -6 -7zm13 -29l41 -41 22 22 -41 41 -22 -22zm48 -49l8 -7 22 22 -8 7 -22 -22zm45 0l-8 7 -22 -21 8 -8c2,-2 5,-2 7,0l15 15c1,1 1,2 1,3 0,2 0,3 -1,4zm-8 44l10 0 0 99 -167 0 0 -156 79 0 0 10 -68 0 0 136 146 0 0 -89z"></path>
</g>
</g>
</svg>